<svg width="800" height="600" xmlns="http://www.w3.org/2000/svg">
  <rect width="800" height="600" fill="#f5f0e6"/>
  <rect x="50" y="50" width="700" height="500" rx="16" fill="rgba(255,255,255,0.6)" stroke="rgba(255,255,255,0.5)" stroke-width="1"/>
  <text x="400" y="120" font-family="-apple-system, BlinkMacSystemFont, sans-serif" font-size="24" fill="#2f5c54" text-anchor="middle" font-weight="600">Insights</text>
  <text x="400" y="160" font-family="-apple-system, BlinkMacSystemFont, sans-serif" font-size="14" fill="#6b6255" text-anchor="middle">Placeholder — replace with real 2× screenshot</text>
  
  <rect x="80" y="200" width="300" height="220" rx="12" fill="rgba(255,255,255,0.8)" stroke="rgba(255,255,255,0.5)"/>
  <text x="230" y="230" font-family="-apple-system, BlinkMacSystemFont, sans-serif" font-size="16" fill="#2b2620" text-anchor="middle">Mood Trend (14 days)</text>
  <polyline points="90,380 140,340 190,360 240,320 290,330 340,290" fill="none" stroke="#2f5c54" stroke-width="2" stroke-linecap="round" stroke-linejoin="round"/>
  
  <rect x="420" y="200" width="300" height="220" rx="12" fill="rgba(255,255,255,0.8)" stroke="rgba(255,255,255,0.5)"/>
  <text x="570" y="230" font-family="-apple-system, BlinkMacSystemFont, sans-serif" font-size="16" fill="#2b2620" text-anchor="middle">Mood ↔ Energy r=0.72</text>
  <circle cx="470" cy="350" r="40" fill="#2f5c54" opacity="0.1"/>
  
  <rect x="80" y="440" width="300" height="80" rx="12" fill="rgba(255,255,255,0.8)" stroke="rgba(255,255,255,0.5)"/>
  <text x="230" y="480" font-family="-apple-system, BlinkMacSystemFont, sans-serif" font-size="16" fill="#2b2620" text-anchor="middle">Habit Heatmap</text>
  <rect x="100" y="460" width="12" height="12" rx="2" fill="#2f5c54" opacity="0.2"/>
  <rect x="118" y="460" width="12" height="12" rx="2" fill="#2f5c54" opacity="0.4"/>
  <rect x="136" y="460" width="12" height="12" rx="2" fill="#2f5c54" opacity="0.6"/>
  <rect x="154" y="460" width="12" height="12" rx="2" fill="#2f5c54" opacity="0.8"/>
  <rect x="172" y="460" width="12" height="12" rx="2" fill="#2f5c54" opacity="1"/>
  
  <rect x="420" y="440" width="300" height="80" rx="12" fill="rgba(255,255,255,0.8)" stroke="rgba(255,255,255,0.5)"/>
  <text x="570" y="480" font-family="-apple-system, BlinkMacSystemFont, sans-serif" font-size="14" fill="#2b2620" text-anchor="middle">Weekly Reflection</text>
  <text x="570" y="500" font-family="-apple-system, BlinkMacSystemFont, sans-serif" font-size="11" fill="#6b6255" text-anchor="middle">"Your mood dips Sunday–Monday..."</text>
</svg>